<svg xmlns="http://www.w3.org/2000/svg" viewBox="0 0 512 512" width="512" height="512"><defs><linearGradient id="g1" x1="0" y1="0" x2="0" y2="1"><stop offset="0" stop-color="#f3ede1"/><stop offset="0.5" stop-color="#EDE4D3"/><stop offset="1" stop-color="#a59f93"/></linearGradient><linearGradient id="g2" x1="0" y1="0" x2="0" y2="1"><stop offset="0" stop-color="#e5b27c"/><stop offset="0.5" stop-color="#D98B3A"/><stop offset="1" stop-color="#976128"/></linearGradient><linearGradient id="g3" x1="0" y1="0" x2="0" y2="1"><stop offset="0" stop-color="#f3ede1"/><stop offset="0.5" stop-color="#EDE4D3"/><stop offset="1" stop-color="#a59f93"/></linearGradient></defs><path d="M214 250 q-16 -22 0 -46 q16 -22 0 -46" stroke="#EDE4D3" stroke-width="10" fill="none" opacity="0.45" stroke-linecap="round"/><path d="M288 246 q-16 -22 0 -44 q16 -22 0 -44" stroke="#EDE4D3" stroke-width="10" fill="none" opacity="0.45" stroke-linecap="round"/><path d="M120 300 a136 118 0 0 0 272 0 Z" fill="url(#g1)" stroke="#767269" stroke-width="6" stroke-linejoin="round"/><ellipse cx="256" cy="300" rx="136" ry="24" fill="url(#g2)" stroke="#6c451d" stroke-width="5" stroke-linejoin="round"/><path d="M334 150 L306 300" stroke="#767269" stroke-width="22" stroke-linecap="round"/><path d="M334 150 L306 300" stroke="#EDE4D3" stroke-width="13" stroke-linecap="round"/><ellipse cx="322" cy="176" rx="26" ry="17" fill="url(#g3)" stroke="#767269" stroke-width="5" stroke-linejoin="round" transform="rotate(12 322 176)"/></svg>