<svg xmlns="http://www.w3.org/2000/svg" viewBox="0 0 512 512" width="512" height="512"><defs><linearGradient id="g1" x1="0" y1="0" x2="0" y2="1"><stop offset="0" stop-color="#d48c79"/><stop offset="0.5" stop-color="#BE5235"/><stop offset="1" stop-color="#853925"/></linearGradient><radialGradient id="g2" cx="40%" cy="32%" r="72%"><stop offset="0" stop-color="#c4a88d"/><stop offset="0.6" stop-color="#9A6A3C"/><stop offset="1" stop-color="#6b4a2a"/></radialGradient><radialGradient id="h3" cx="50%" cy="50%" r="50%"><stop offset="0" stop-color="#d6c3b1"/><stop offset="1" stop-color="#9A6A3C"/></radialGradient></defs><path d="M168 402 q0 -122 88 -122 q88 0 88 122 Z" fill="url(#g1)" stroke="#5f291a" stroke-width="6" stroke-linejoin="round"/><circle cx="256" cy="182" r="70" fill="url(#g2)" stroke="#4d351e" stroke-width="6" stroke-linejoin="round"/><path d="M190 168 q4 -78 66 -78 q62 0 66 78 q-30 -34 -66 -34 q-36 0 -66 34 Z" fill="#1c1712"/><circle cx="232" cy="184" r="8" fill="#1c1712"/><circle cx="280" cy="184" r="8" fill="#1c1712"/><path d="M232 210 q24 22 48 0" stroke="#1c1712" stroke-width="8" fill="none" stroke-linecap="round"/><ellipse cx="228" cy="158" rx="27" ry="19" fill="url(#h3)" opacity="0.9" transform="rotate(-18 228 158)"/></svg>