<svg xmlns="http://www.w3.org/2000/svg" viewBox="0 0 512 512" width="512" height="512"><defs><linearGradient id="g1" x1="0" y1="0" x2="0" y2="1"><stop offset="0" stop-color="#d48c79"/><stop offset="0.5" stop-color="#BE5235"/><stop offset="1" stop-color="#853925"/></linearGradient><radialGradient id="g2" cx="40%" cy="32%" r="72%"><stop offset="0" stop-color="#c4a88d"/><stop offset="0.6" stop-color="#9A6A3C"/><stop offset="1" stop-color="#6b4a2a"/></radialGradient><linearGradient id="g3" x1="0" y1="0" x2="0" y2="1"><stop offset="0" stop-color="#ecc673"/><stop offset="0.5" stop-color="#E3A92C"/><stop offset="1" stop-color="#9e761e"/></linearGradient><radialGradient id="h4" cx="50%" cy="50%" r="50%"><stop offset="0" stop-color="#d6c3b1"/><stop offset="1" stop-color="#9A6A3C"/></radialGradient></defs><path d="M168 402 q0 -122 88 -122 q88 0 88 122 Z" fill="url(#g1)" stroke="#5f291a" stroke-width="6" stroke-linejoin="round"/><circle cx="256" cy="188" r="66" fill="url(#g2)" stroke="#4d351e" stroke-width="6" stroke-linejoin="round"/><path d="M188 158 q6 -70 68 -70 q62 0 68 70 q-14 -8 -22 8 q-16 -22 -46 -22 q-30 0 -46 22 q-8 -16 -22 -8 Z" fill="url(#g3)" stroke="#715416" stroke-width="5" stroke-linejoin="round"/><circle cx="234" cy="190" r="8" fill="#1c1712"/><circle cx="280" cy="190" r="8" fill="#1c1712"/><path d="M234 214 q22 20 46 0" stroke="#1c1712" stroke-width="8" fill="none" stroke-linecap="round"/><ellipse cx="230" cy="164" rx="26" ry="18" fill="url(#h4)" opacity="0.9" transform="rotate(-18 230 164)"/></svg>