<svg xmlns="http://www.w3.org/2000/svg" viewBox="0 0 512 512" width="512" height="512"><defs><linearGradient id="g1" x1="0" y1="0" x2="0" y2="1"><stop offset="0" stop-color="#787775"/><stop offset="0.5" stop-color="#33322F"/><stop offset="1" stop-color="#232320"/></linearGradient><linearGradient id="g2" x1="0" y1="0" x2="0" y2="1"><stop offset="0" stop-color="#8a8a88"/><stop offset="0.5" stop-color="#4f4e4c"/><stop offset="1" stop-color="#373635"/></linearGradient><linearGradient id="g3" x1="0" y1="0" x2="0" y2="1"><stop offset="0" stop-color="#929290"/><stop offset="0.5" stop-color="#5b5b58"/><stop offset="1" stop-color="#3f3f3d"/></linearGradient><radialGradient id="h4" cx="50%" cy="50%" r="50%"><stop offset="0" stop-color="#adadab"/><stop offset="1" stop-color="#33322F"/></radialGradient></defs><path d="M150 258 h212 a106 96 0 0 1 -212 0 Z" fill="url(#g1)" stroke="#191917" stroke-width="6" stroke-linejoin="round"/><path d="M132 268 q-20 0 -20 20 q0 20 20 20" fill="none" stroke="#1e1e1c" stroke-width="16"/><path d="M380 268 q20 0 20 20 q0 20 -20 20" fill="none" stroke="#1e1e1c" stroke-width="16"/><ellipse cx="256" cy="256" rx="112" ry="24" fill="url(#g2)" stroke="#191917" stroke-width="6" stroke-linejoin="round"/><rect x="240" y="222" width="32" height="16" rx="8" fill="url(#g3)" stroke="#191917" stroke-width="4" stroke-linejoin="round"/><ellipse cx="214" cy="282" rx="26" ry="20" fill="url(#h4)" opacity="0.9" transform="rotate(-8 214 282)"/></svg>