<svg xmlns="http://www.w3.org/2000/svg" viewBox="0 0 512 512" width="512" height="512"><defs><linearGradient id="g1" x1="0" y1="0" x2="0" y2="1"><stop offset="0" stop-color="#b19273"/><stop offset="0.5" stop-color="#8A5A2B"/><stop offset="1" stop-color="#603e1e"/></linearGradient><linearGradient id="g2" x1="0" y1="0" x2="0" y2="1"><stop offset="0" stop-color="#f3ede1"/><stop offset="0.5" stop-color="#EDE4D3"/><stop offset="1" stop-color="#a59f93"/></linearGradient><linearGradient id="g3" x1="0" y1="0" x2="0" y2="1"><stop offset="0" stop-color="#a3886e"/><stop offset="0.5" stop-color="#754c24"/><stop offset="1" stop-color="#513519"/></linearGradient><radialGradient id="h4" cx="50%" cy="50%" r="50%"><stop offset="0" stop-color="#f7f4ed"/><stop offset="1" stop-color="#EDE4D3"/></radialGradient></defs><path d="M196 210 h120 l-26 176 h-68 Z" fill="url(#g1)" stroke="#452d15" stroke-width="6" stroke-linejoin="round"/><path d="M196 236 L316 244" stroke="#593a1b" stroke-width="4" opacity="0.6"/><path d="M196 244 L316 236" stroke="#593a1b" stroke-width="4" opacity="0.6"/><path d="M196 268 L316 276" stroke="#593a1b" stroke-width="4" opacity="0.6"/><path d="M196 276 L316 268" stroke="#593a1b" stroke-width="4" opacity="0.6"/><path d="M196 300 L316 308" stroke="#593a1b" stroke-width="4" opacity="0.6"/><path d="M196 308 L316 300" stroke="#593a1b" stroke-width="4" opacity="0.6"/><ellipse cx="256" cy="210" rx="62" ry="22" fill="url(#g2)" stroke="#767269" stroke-width="5" stroke-linejoin="round"/><ellipse cx="256" cy="386" rx="36" ry="12" fill="url(#g3)" stroke="#452d15" stroke-width="4" stroke-linejoin="round"/><ellipse cx="236" cy="206" rx="22" ry="10" fill="url(#h4)" opacity="0.9" transform="rotate(0 236 206)"/></svg>